<svg width="265" height="219" viewBox="0 0 265 219" fill="none" xmlns="http://www.w3.org/2000/svg">
<g filter="url(#filter0_d_676_10)">
<path d="M135 176C179.183 176 215 140.183 215 96C215 51.8172 179.183 16 135 16C90.8172 16 55 51.8172 55 96C55 140.183 90.8172 176 135 176Z" fill="#EE018B"/>
</g>
<g filter="url(#filter1_d_676_10)">
<path d="M230.5 187C236.299 187 241 182.299 241 176.5C241 170.701 236.299 166 230.5 166C224.701 166 220 170.701 220 176.5C220 182.299 224.701 187 230.5 187Z" fill="black"/>
</g>
<g filter="url(#filter2_d_676_10)">
<path d="M30.5 161C34.0899 161 37 158.09 37 154.5C37 150.91 34.0899 148 30.5 148C26.9101 148 24 150.91 24 154.5C24 158.09 26.9101 161 30.5 161Z" fill="#BCD9FF"/>
</g>
<path d="M96 96.006L123.46 121L174 75" stroke="white" stroke-width="10" stroke-miterlimit="10" stroke-linecap="square" stroke-linejoin="round"/>
<defs>
<filter id="filter0_d_676_10" x="31" y="0" width="208" height="208" filterUnits="userSpaceOnUse" color-interpolation-filters="sRGB">
<feFlood flood-opacity="0" result="BackgroundImageFix"/>
<feColorMatrix in="SourceAlpha" type="matrix" values="0 0 0 0 0 0 0 0 0 0 0 0 0 0 0 0 0 0 127 0" result="hardAlpha"/>
<feOffset dy="8"/>
<feGaussianBlur stdDeviation="12"/>
<feColorMatrix type="matrix" values="0 0 0 0 0.45098 0 0 0 0 0.45098 0 0 0 0 0.45098 0 0 0 0.302 0"/>
<feBlend mode="normal" in2="BackgroundImageFix" result="effect1_dropShadow_676_10"/>
<feBlend mode="normal" in="SourceGraphic" in2="effect1_dropShadow_676_10" result="shape"/>
</filter>
<filter id="filter1_d_676_10" x="196" y="150" width="69" height="69" filterUnits="userSpaceOnUse" color-interpolation-filters="sRGB">
<feFlood flood-opacity="0" result="BackgroundImageFix"/>
<feColorMatrix in="SourceAlpha" type="matrix" values="0 0 0 0 0 0 0 0 0 0 0 0 0 0 0 0 0 0 127 0" result="hardAlpha"/>
<feOffset dy="8"/>
<feGaussianBlur stdDeviation="12"/>
<feColorMatrix type="matrix" values="0 0 0 0 0.45098 0 0 0 0 0.45098 0 0 0 0 0.45098 0 0 0 0.302 0"/>
<feBlend mode="normal" in2="BackgroundImageFix" result="effect1_dropShadow_676_10"/>
<feBlend mode="normal" in="SourceGraphic" in2="effect1_dropShadow_676_10" result="shape"/>
</filter>
<filter id="filter2_d_676_10" x="0" y="132" width="61" height="61" filterUnits="userSpaceOnUse" color-interpolation-filters="sRGB">
<feFlood flood-opacity="0" result="BackgroundImageFix"/>
<feColorMatrix in="SourceAlpha" type="matrix" values="0 0 0 0 0 0 0 0 0 0 0 0 0 0 0 0 0 0 127 0" result="hardAlpha"/>
<feOffset dy="8"/>
<feGaussianBlur stdDeviation="12"/>
<feColorMatrix type="matrix" values="0 0 0 0 0.45098 0 0 0 0 0.45098 0 0 0 0 0.45098 0 0 0 0.302 0"/>
<feBlend mode="normal" in2="BackgroundImageFix" result="effect1_dropShadow_676_10"/>
<feBlend mode="normal" in="SourceGraphic" in2="effect1_dropShadow_676_10" result="shape"/>
</filter>
</defs>
</svg>
